# xmcd
# 
# Track frame offsets:
#     150
#     11951
#     24584
#     38042
#     50562
#     65778
#     77033
#     88434
#     98615
#     108688
#     122220
#     133938
#     142647
#     154210
# 
# Disc length: 2274
# 
# Revision: 0
# Processed by: cddbd v1.5.2PL0 Copyright (c) Steve Scherf et al.
# Submitted via: BonkEnc v1.0.15
# 
DISCID=c608e00e
DTITLE=Various Artist - THE 14 BLUES STANDARDS
DYEAR=2004
DGENRE=Blues
TTITLE0=OTIS RUSH - All Your Love
TTITLE1=ELMORE JAMES - The Sky Is Crying
TTITLE2=MUDDY WATERS - Rollin' And Tumblin' Part1
TTITLE3=JIMMY REED - Bright Lights, Big City
TTITLE4=J. B. HUTTO - Dust My Broom
TTITLE5=JOHN LEE HOOKER - Boom Boom
TTITLE6=LIGHTNIN' HOPKINS - Someday Baby
TTITLE7=JUNIOR WELLS - Messin' With The Kid
TTITLE8=BILLY BOY ARNOLD - I Ain't Got You
TTITLE9=B. B. KING - Rock Me Baby
TTITLE10=WILLIE COBBS - You Don't Love Me
TTITLE11=NAPOLEON STRICKLAND - Shake 'Em Down
TTITLE12=EDDIE TAYLOR - Baby Please Don't Go
TTITLE13=JOHN LITTLEJOHN - Sweet Home Chicago
EXTD=blues and soul records no.57
EXTT0=
EXTT1=
EXTT2=
EXTT3=
EXTT4=
EXTT5=
EXTT6=
EXTT7=
EXTT8=
EXTT9=
EXTT10=
EXTT11=
EXTT12=
EXTT13=
PLAYORDER=
